<?xml version="1.0" encoding="UTF-8" standalone="no"?>
<!-- Created with Inkscape (http://www.inkscape.org/) -->

<svg
   width="57.814102mm"
   height="57.814102mm"
   viewBox="0 0 57.814102 57.814102"
   version="1.1"
   id="svg738"
   xmlns="http://www.w3.org/2000/svg"
   xmlns:svg="http://www.w3.org/2000/svg">
  <defs
     id="defs735" />
  <g
     id="layer1"
     transform="translate(-64.156779,-84.263164)">
    <g
       id="g184"
       transform="matrix(0.26458333,0,0,0.26458333,-458.22861,84.263164)">
      <path
         d="m 2101.79,165.34 c 0,10.04 -8.09,18.21 -18.13,18.21 -10.04,0 -18.21,-8.16 -18.21,-18.21 0,-10.04 8.16,-18.13 18.21,-18.13 10.04,0 18.13,8.09 18.13,18.13 z"
         fill="#a3c53a"
         id="path152" />
      <path
         d="m 2119.28,218.51 h -71.31 c 0,-12.72 6.65,-23.84 16.69,-30.13 5.2,4.26 11.78,6.79 19,6.79 7.22,0 13.8,-2.53 19,-6.79 9.97,6.29 16.62,17.42 16.62,30.13 z"
         fill="#036544"
         id="path154" />
      <path
         d="m 2065.45,53.17 c 0,-10.04 8.09,-18.21 18.13,-18.21 10.04,0 18.21,8.16 18.21,18.21 0,10.04 -8.16,18.13 -18.21,18.13 -10.05,0 -18.13,-8.08 -18.13,-18.13 z"
         fill="#a3c53a"
         id="path156" />
      <path
         d="m 2047.97,0 h 71.31 c 0,12.72 -6.65,23.84 -16.69,30.13 -5.2,-4.26 -11.78,-6.79 -19,-6.79 -7.22,0 -13.8,2.53 -19,6.79 -9.97,-6.29 -16.62,-17.41 -16.62,-30.13 z"
         fill="#036544"
         id="path158" />
      <path
         d="m 2027.54,127.43 c -10.04,0 -18.21,-8.09 -18.21,-18.13 0,-10.04 8.16,-18.21 18.21,-18.21 10.04,0 18.13,8.16 18.13,18.21 0,10.05 -8.09,18.13 -18.13,18.13 z"
         fill="#a3c53a"
         id="path160" />
      <path
         d="M 1974.37,144.91 V 73.6 c 12.72,0 23.84,6.65 30.13,16.69 -4.26,5.2 -6.79,11.78 -6.79,19 0,7.22 2.53,13.8 6.79,19 -6.29,9.97 -17.42,16.62 -30.13,16.62 z"
         fill="#036544"
         id="path162" />
      <path
         d="m 2139.71,91.09 c 10.04,0 18.21,8.09 18.21,18.13 0,10.04 -8.16,18.21 -18.21,18.21 -10.04,0 -18.13,-8.16 -18.13,-18.21 0,-10.05 8.08,-18.13 18.13,-18.13 z"
         fill="#a3c53a"
         id="path164" />
      <path
         d="m 2192.88,73.6 v 71.31 c -12.72,0 -23.84,-6.65 -30.13,-16.69 4.26,-5.2 6.79,-11.78 6.79,-19 0,-7.22 -2.53,-13.8 -6.79,-19 6.29,-9.97 17.41,-16.62 30.13,-16.62 z"
         fill="#036544"
         id="path166" />
      <path
         d="m 2056.82,161.76 c -7.1,7.1 -18.6,7.15 -25.7,0.05 -7.1,-7.1 -7.1,-18.65 0,-25.75 7.1,-7.1 18.6,-7.05 25.7,0.05 7.1,7.1 7.1,18.55 0,25.65 z"
         fill="#a3c53a"
         id="path168" />
      <path
         d="m 2031.58,211.72 -50.42,-50.42 c 8.99,-8.99 21.56,-12.16 33.1,-9.5 0.66,6.69 3.53,13.13 8.63,18.24 5.11,5.11 11.55,7.97 18.24,8.63 2.61,11.5 -0.56,24.06 -9.55,33.05 z"
         fill="#036544"
         id="path170" />
      <path
         d="m 2110.43,56.75 c 7.1,-7.1 18.6,-7.15 25.7,-0.05 7.1,7.1 7.1,18.65 0,25.75 -7.1,7.1 -18.6,7.05 -25.7,-0.05 -7.1,-7.1 -7.1,-18.55 0,-25.65 z"
         fill="#a3c53a"
         id="path172" />
      <path
         d="m 2135.67,6.79 50.42,50.42 c -8.99,8.99 -21.56,12.16 -33.1,9.5 -0.66,-6.69 -3.53,-13.13 -8.63,-18.24 -5.11,-5.11 -11.55,-7.97 -18.24,-8.63 -2.61,-11.49 0.56,-24.06 9.55,-33.05 z"
         fill="#036544"
         id="path174" />
      <path
         d="m 2031.12,82.45 c -7.1,-7.1 -7.15,-18.6 -0.05,-25.7 7.1,-7.1 18.65,-7.1 25.75,0 7.1,7.1 7.05,18.6 -0.05,25.7 -7.11,7.1 -18.55,7.1 -25.65,0 z"
         fill="#a3c53a"
         id="path176" />
      <path
         d="m 1981.16,57.21 50.42,-50.42 c 8.99,8.99 12.16,21.56 9.5,33.1 -6.69,0.66 -13.13,3.53 -18.24,8.63 -5.11,5.1 -7.97,11.55 -8.63,18.24 -11.5,2.61 -24.06,-0.56 -33.05,-9.55 z"
         fill="#036544"
         id="path178" />
      <path
         d="m 2136.13,136.06 c 7.1,7.1 7.15,18.6 0.05,25.7 -7.1,7.1 -18.65,7.1 -25.75,0 -7.1,-7.1 -7.05,-18.6 0.05,-25.7 7.1,-7.1 18.55,-7.1 25.65,0 z"
         fill="#a3c53a"
         id="path180" />
      <path
         d="m 2186.09,161.3 -50.42,50.42 c -8.99,-8.99 -12.16,-21.56 -9.5,-33.1 6.69,-0.66 13.13,-3.53 18.24,-8.63 5.11,-5.1 7.97,-11.55 8.63,-18.24 11.49,-2.61 24.06,0.56 33.05,9.55 z"
         fill="#036544"
         id="path182" />
    </g>
  </g>
</svg>
