<?xml version="1.0" standalone="no"?>
<!DOCTYPE svg PUBLIC "-//W3C//DTD SVG 20010904//EN"
 "http://www.w3.org/TR/2001/REC-SVG-20010904/DTD/svg10.dtd">
<svg version="1.0" xmlns="http://www.w3.org/2000/svg"
 width="1600.000000pt" height="1200.000000pt" viewBox="0 0 1600.000000 1200.000000"
 preserveAspectRatio="xMidYMid meet">

<g transform="translate(0.000000,1200.000000) scale(0.100000,-0.100000)"
fill="#000000" stroke="none">
<path d="M2760 4771 c0 -16 -7 -36 -15 -45 -11 -10 -12 -17 -4 -22 12 -7 29
13 29 36 0 8 3 25 6 38 4 13 2 22 -5 22 -6 0 -11 -13 -11 -29z"/>
<path d="M15965 4781 c-17 -17 -629 -319 -790 -391 -27 -12 -81 -37 -120 -55
-164 -76 -364 -165 -372 -165 -4 0 -46 -18 -93 -39 -128 -58 -216 -96 -305
-131 -44 -17 -98 -39 -120 -49 -22 -10 -107 -44 -190 -76 -82 -31 -199 -76
-260 -100 -60 -23 -130 -50 -155 -58 -25 -9 -70 -25 -100 -37 -112 -42 -357
-132 -410 -150 -30 -10 -181 -62 -335 -115 -286 -98 -551 -186 -640 -211 -27
-8 -59 -19 -70 -23 -23 -10 -213 -71 -235 -75 -8 -2 -22 -6 -30 -9 -73 -27
-141 -44 -138 -35 4 12 128 56 161 57 9 1 25 5 35 10 57 28 94 41 151 55 36 9
67 19 70 24 3 4 36 16 73 26 37 10 66 22 63 26 -3 5 0 12 6 16 8 4 9 3 5 -4
-9 -15 3 -15 60 -1 24 6 44 15 44 20 0 5 10 9 23 9 13 0 32 7 43 15 10 8 28
15 39 15 17 0 74 18 130 40 11 5 51 19 89 32 38 12 62 24 53 26 -9 2 -31 -4
-49 -12 -38 -20 -60 -20 -35 -2 14 11 15 15 5 19 -8 4 -7 6 5 6 23 1 25 81 2
81 -8 0 -15 4 -15 9 0 5 -8 7 -18 5 -14 -4 -16 -14 -14 -48 4 -40 2 -44 -22
-50 -29 -7 -35 -26 -9 -26 13 0 14 -3 6 -11 -9 -9 -16 -8 -27 4 -9 9 -16 20
-16 26 0 6 -4 11 -9 11 -5 0 -12 10 -15 23 -7 21 -7 21 -15 2 -6 -15 -2 -24
16 -38 18 -15 21 -22 13 -38 -14 -25 -28 -24 -32 2 -3 23 -53 58 -65 45 -4 -5
-2 -11 5 -13 23 -9 12 -25 -13 -19 -22 6 -25 3 -25 -19 0 -23 -4 -25 -40 -25
l-40 0 0 40 c0 22 -4 40 -10 40 -5 0 -10 -15 -10 -34 0 -38 -8 -66 -20 -66 -4
0 -5 23 -2 50 4 41 2 50 -12 50 -12 0 -16 -10 -16 -40 0 -22 -1 -40 -2 -40 -2
0 -24 -7 -50 -15 -42 -12 -48 -12 -48 0 0 10 11 15 33 15 44 0 59 12 57 46 -4
51 -2 54 40 54 33 0 40 3 40 20 0 17 -7 20 -40 20 -24 0 -40 -5 -40 -12 0 -6
-8 -4 -19 6 -18 16 -19 15 -25 -19 -4 -21 -13 -35 -21 -35 -8 0 -15 -4 -15
-10 0 -5 5 -10 10 -10 6 0 10 -9 10 -20 0 -18 -20 -30 -20 -12 0 4 -9 18 -20
32 l-20 25 -20 -25 -20 -25 0 23 c0 19 -5 22 -40 22 -29 0 -40 -4 -40 -15 0
-8 -4 -15 -10 -15 -5 0 -10 7 -10 15 0 8 -9 15 -20 15 -11 0 -20 -7 -20 -15 0
-8 -4 -15 -10 -15 -5 0 -10 7 -10 15 0 12 -16 15 -80 15 -66 0 -80 -3 -80 -16
0 -9 -6 -14 -12 -11 -9 2 -12 20 -10 55 3 42 1 52 -12 52 -10 0 -16 13 -19 43
l-4 42 -1 -42 c-1 -24 -6 -43 -12 -43 -5 0 -10 -6 -10 -13 0 -7 -9 -18 -20
-25 -11 -7 -20 -18 -20 -26 0 -20 -32 -45 -37 -28 -3 7 -21 12 -44 12 -39 0
-39 0 -39 40 0 29 -4 40 -15 40 -11 0 -15 -12 -15 -47 0 -42 -4 -51 -35 -79
-23 -20 -45 -30 -63 -29 -24 1 -27 5 -30 42 -3 43 -25 60 -53 42 -24 -15 -39
-10 -39 14 0 18 6 22 28 22 36 0 44 19 10 23 -22 3 -28 8 -28 28 0 15 -4 23
-10 19 -6 -4 -8 -10 -5 -15 3 -5 -1 -28 -9 -51 -13 -38 -13 -43 5 -62 25 -27
25 -45 -1 -22 -11 10 -22 16 -24 14 -13 -16 -36 -76 -36 -95 0 -12 -6 -29 -13
-36 -8 -7 -12 -19 -9 -26 2 -7 -3 -23 -11 -36 -9 -14 -12 -28 -7 -36 5 -8 5
-21 1 -29 -5 -9 -6 -22 -4 -28 3 -8 -4 -13 -16 -13 -18 0 -19 -3 -10 -19 10
-14 9 -23 -4 -42 -17 -23 -17 -23 -17 19 0 35 -3 42 -19 42 -16 0 -21 -8 -24
-42 l-4 -43 -1 43 c-2 38 -5 42 -27 42 -15 0 -25 6 -25 14 0 13 -20 26 -41 26
-5 0 -9 -8 -9 -17 0 -23 -42 -43 -107 -50 -44 -5 -52 -9 -56 -29 -2 -13 -1
-24 3 -24 5 0 10 -20 12 -45 2 -35 0 -44 -10 -40 -8 3 -16 5 -18 5 -2 0 -4 18
-4 39 0 47 -5 48 -137 43 l-83 -3 0 -40 c0 -35 -3 -39 -24 -39 -14 0 -28 -4
-31 -10 -14 -23 -25 -7 -25 40 0 38 -4 50 -15 50 -11 0 -15 -11 -15 -40 0 -36
-2 -40 -25 -40 -17 0 -25 6 -25 18 0 9 -9 28 -20 42 l-20 25 -20 -25 c-10 -14
-21 -34 -23 -45 -2 -11 -5 -1 -6 23 -1 40 -3 42 -31 42 -27 0 -30 -3 -30 -32
0 -42 -10 -78 -21 -78 -5 0 -9 7 -9 15 0 8 -9 15 -20 15 -11 0 -20 -7 -20 -15
0 -8 -4 -15 -10 -15 -5 0 -10 -7 -10 -16 0 -13 -9 -15 -45 -12 -29 2 -46 -1
-50 -9 -4 -12 12 -16 68 -16 14 0 15 -2 5 -14 -23 -28 -70 -45 -116 -41 l-46
3 -27 -55 -28 -55 -1 43 0 42 -40 0 c-29 0 -40 4 -40 15 0 8 -4 15 -9 15 -5 0
-14 -7 -21 -15 -15 -18 -47 -20 -53 -2 -3 10 -9 10 -26 0 -11 -7 -28 -13 -36
-13 -8 0 -15 -4 -15 -10 0 -5 -20 -10 -44 -10 -51 0 -62 -10 -44 -40 9 -13 23
-20 45 -20 18 0 33 -4 33 -10 0 -6 -45 -10 -115 -10 -106 0 -115 -1 -115 -19
0 -11 -10 -22 -22 -26 -14 -4 -18 -8 -10 -12 20 -8 14 -43 -8 -43 -29 0 -27
-37 3 -43 21 -3 21 -4 2 -12 -11 -5 -25 -16 -32 -24 -11 -14 -12 -14 -13 2 0
9 5 17 10 17 21 0 9 20 -12 21 -13 0 -17 3 -10 6 26 10 10 23 -28 23 -22 0
-40 5 -40 10 0 16 -26 12 -41 -6 -7 -9 -24 -20 -37 -25 -14 -6 -20 -13 -16
-21 6 -9 9 -9 12 0 2 7 13 12 25 12 20 -1 21 -2 5 -14 -19 -14 -24 -46 -8 -46
6 0 10 -4 10 -10 0 -5 -7 -10 -15 -10 -8 0 -15 7 -15 16 0 14 -3 14 -15 4 -13
-11 -20 -11 -40 0 -21 11 -27 11 -43 -3 -10 -10 -24 -17 -30 -17 -7 0 -12 -7
-12 -15 0 -8 -7 -15 -16 -15 -18 0 -114 -59 -114 -71 0 -4 -12 -12 -27 -18
-38 -15 -65 -33 -81 -54 -7 -9 -17 -15 -22 -12 -4 3 -13 -2 -20 -10 -7 -8 -18
-15 -24 -15 -7 0 -25 -13 -41 -30 -16 -16 -34 -30 -40 -30 -13 0 -45 -25 -82
-62 -12 -12 -25 -19 -29 -15 -4 3 -24 -7 -44 -23 -21 -17 -45 -30 -54 -30 -8
0 -26 -9 -38 -21 -31 -28 -157 -109 -170 -109 -6 0 -6 6 2 15 7 8 19 15 26 15
16 0 17 9 5 29 -7 10 -13 10 -30 -5 -34 -29 -44 -53 -30 -70 6 -8 7 -14 3 -14
-16 0 -35 41 -29 61 4 12 2 19 -6 19 -8 0 -6 6 4 18 22 25 21 42 -2 42 -11 0
-22 -10 -26 -23 -4 -16 -8 -18 -12 -8 -3 8 -17 25 -30 37 -14 13 -22 28 -18
34 11 17 -4 60 -20 60 -8 0 -15 -4 -15 -10 0 -5 7 -10 15 -10 8 0 15 -9 15
-20 0 -29 -23 -25 -60 10 -18 17 -36 30 -41 30 -5 0 -9 7 -9 16 0 25 -24 10
-42 -27 -16 -32 -18 -33 -24 -11 -5 17 -14 22 -40 22 -24 0 -34 -5 -34 -15 0
-8 -7 -15 -15 -15 -9 0 -18 7 -21 15 -7 17 -40 20 -49 5 -4 -6 -12 -4 -22 5
-12 12 -12 19 -3 30 10 13 14 13 26 0 16 -16 44 -10 44 10 0 8 -9 17 -20 20
-11 3 -20 11 -20 16 0 5 -11 9 -25 9 -18 0 -25 -5 -25 -20 0 -11 -5 -20 -11
-20 -6 0 -13 9 -16 20 -4 15 -14 20 -37 20 -18 0 -37 -5 -43 -11 -7 -7 -19 -8
-30 -4 -10 5 -26 7 -37 6 -25 -3 -62 37 -47 52 24 24 12 37 -18 19 -16 -9 -27
-22 -24 -28 11 -29 -108 -49 -135 -22 -9 9 -15 9 -24 0 -19 -19 -28 -14 -29
16 l-1 27 -11 -27 c-6 -16 -17 -28 -25 -28 -11 0 -13 9 -8 40 4 25 2 40 -4 40
-5 0 -10 -6 -10 -13 0 -24 -21 -37 -41 -24 -14 9 -21 9 -31 -1 -9 -9 -8 -15 8
-27 17 -13 17 -14 2 -15 -10 0 -18 4 -18 9 0 5 -9 11 -20 14 -14 3 -20 14 -20
31 0 29 -14 35 -24 10 -6 -15 -8 -15 -26 1 -16 15 -21 15 -34 4 -44 -40 -50
-43 -54 -31 -2 7 -21 12 -41 12 -35 0 -39 3 -51 40 -7 22 -16 40 -20 40 -14 0
-19 -44 -7 -52 8 -5 2 -16 -20 -37 l-32 -29 -13 34 c-6 19 -16 34 -21 34 -5 0
-6 11 -3 25 4 14 2 25 -4 25 -5 0 -10 -6 -10 -14 0 -8 -6 -17 -12 -20 -10 -5
-10 -7 0 -12 24 -11 -9 -34 -49 -34 -35 0 -39 3 -39 25 0 23 -4 25 -40 25 -22
0 -40 -4 -40 -10 0 -5 7 -10 15 -10 8 0 15 -4 15 -9 0 -5 -16 -9 -35 -9 -19 0
-35 5 -35 10 0 6 -9 8 -20 5 -11 -3 -20 -1 -20 3 0 4 -17 6 -38 3 -33 -4 -39
-2 -51 21 -16 29 -46 35 -55 11 -6 -17 -96 -22 -96 -5 0 6 18 10 40 10 23 0
40 5 40 11 0 8 -18 10 -59 6 -46 -4 -61 -2 -65 9 -3 8 -1 14 5 14 14 0 39 26
39 40 0 15 -25 40 -40 40 -30 0 -54 -54 -27 -63 9 -3 9 -9 -2 -29 -10 -20 -10
-30 -2 -47 10 -18 9 -21 -9 -21 -16 0 -20 7 -20 38 -1 41 -19 72 -42 72 -17 0
-28 -29 -28 -77 0 -23 -5 -33 -15 -33 -11 0 -15 12 -15 49 0 48 -12 72 -25 51
-4 -6 -11 -8 -16 -5 -5 4 -9 1 -9 -4 0 -6 -9 -11 -20 -11 -12 0 -20 -7 -21
-17 0 -13 -3 -11 -12 7 -6 14 -14 27 -18 30 -3 3 -12 16 -19 30 l-14 25 -8
-34 c-12 -44 -30 -62 -44 -46 -8 8 -8 16 2 30 8 10 14 28 14 39 0 19 -2 19
-13 -4 -16 -31 -43 -37 -68 -14 -17 16 -21 16 -62 0 -23 -9 -57 -16 -75 -16
-32 0 -46 -23 -19 -33 10 -4 10 -7 0 -18 -11 -11 -13 -10 -13 3 0 16 -54 68
-71 68 -5 0 -9 -7 -9 -15 0 -11 -11 -15 -40 -15 -35 0 -42 4 -51 27 -7 19 -7
29 0 31 14 5 15 32 2 32 -17 0 -25 -23 -27 -75 -2 -27 -3 -54 -3 -58 -1 -4
-10 -3 -21 3 -15 8 -23 6 -40 -12 l-20 -22 11 33 c12 35 7 45 -30 56 -21 6
-23 5 -18 -16 8 -33 -6 -53 -32 -44 -27 8 -27 25 -1 25 23 0 24 4 10 31 -15
28 -28 24 -47 -16 -18 -37 -37 -42 -130 -37 -24 1 -31 -2 -26 -13 3 -9 -1 -15
-8 -15 -8 0 -27 -14 -43 -30 -16 -17 -33 -30 -38 -30 -14 0 -9 20 12 43 12 12
23 32 26 44 4 13 12 23 20 23 7 0 16 11 20 25 3 14 17 34 30 44 25 19 31 50
15 79 -4 9 -11 34 -14 55 -5 34 -4 37 19 37 46 0 24 19 -31 25 -57 8 -81 1
-55 -15 11 -7 7 -15 -18 -38 -18 -17 -32 -35 -32 -41 0 -6 -4 -11 -10 -11 -5
0 -9 8 -7 18 1 9 -2 19 -8 22 -5 3 -11 -5 -13 -17 -4 -26 -12 -29 -30 -11 -9
9 -12 9 -12 0 0 -7 -11 -12 -25 -12 -22 0 -25 4 -25 40 0 35 -3 40 -22 40 -13
0 -34 3 -48 6 -20 4 -19 2 7 -12 26 -13 33 -23 33 -45 0 -36 -30 -40 -45 -6
-7 16 -18 22 -40 22 -25 0 -32 -5 -40 -32 -10 -30 -12 -31 -24 -15 -9 13 -22
17 -42 14 -16 -2 -35 1 -43 7 -14 12 -46 5 -46 -10 0 -5 -11 -9 -25 -9 -22 0
-25 -4 -25 -40 0 -29 -4 -40 -15 -40 -11 0 -15 11 -15 40 0 33 -3 40 -19 40
-15 0 -21 8 -24 33 -4 29 -5 30 -12 10 -9 -29 -41 -30 -48 -2 -5 18 -8 19 -29
8 -30 -15 -68 -50 -68 -62 0 -5 7 -4 15 3 12 10 18 10 30 0 19 -16 19 -36 0
-44 -18 -6 -45 2 -45 15 0 14 -80 11 -81 -3 0 -7 -5 0 -11 17 -10 27 -12 28
-19 10 -4 -11 -8 -32 -8 -46 -1 -34 -24 -54 -48 -41 -13 8 -16 21 -14 56 2 35
-1 46 -12 46 -8 0 -17 -7 -21 -15 -7 -20 -26 -19 -26 2 0 14 -2 14 -20 -2 -19
-17 -21 -17 -40 0 -20 18 -22 18 -51 1 -16 -10 -36 -15 -44 -12 -19 7 -30 -13
-16 -27 19 -19 12 -28 -16 -25 -22 2 -29 9 -31 31 -2 16 2 35 9 43 14 17 8 18
-26 2 -14 -6 -25 -17 -25 -23 0 -7 -9 -15 -20 -18 -11 -3 -20 -10 -20 -15 0
-6 9 -14 20 -17 11 -3 20 -11 20 -18 0 -8 -3 -8 -12 1 -15 15 -45 16 -50 1 -5
-15 -48 10 -48 27 0 19 -22 22 -110 18 -61 -4 -85 -2 -91 8 -7 10 -11 10 -21
0 -15 -15 -28 -15 -28 1 0 6 -4 19 -9 26 -8 12 -13 11 -29 -9 -19 -23 -21 -23
-61 -10 -42 13 -43 13 -65 -15 -18 -22 -26 -26 -41 -18 -16 9 -15 12 14 29 17
10 31 22 31 26 0 4 9 8 20 8 22 0 27 15 9 26 -6 3 -22 -6 -36 -22 -23 -27 -25
-28 -38 -11 -11 16 -16 16 -34 5 -22 -14 -27 -33 -11 -43 6 -4 5 -12 -4 -21
-22 -21 -26 -18 -26 26 0 22 -4 40 -9 40 -5 0 -12 12 -16 28 l-8 27 -13 -30
c-7 -16 -13 -42 -14 -57 0 -27 -1 -27 -47 -21 -27 3 -55 12 -64 19 -8 8 -23
14 -32 14 -9 0 -17 5 -17 10 0 6 10 10 21 10 18 0 19 2 9 15 -16 19 -30 19
-30 0 0 -8 -4 -15 -10 -15 -5 0 -10 -19 -11 -42 l-1 -43 -10 35 c-13 45 -15
47 -33 24 -14 -18 -14 -18 -15 -1 0 27 -41 57 -68 50 -15 -4 -27 0 -36 12 -9
13 -15 15 -20 6 -4 -6 0 -14 8 -17 23 -9 20 -24 -4 -24 -24 0 -27 -25 -4 -34
25 -10 13 -51 -16 -53 -14 -1 -19 0 -12 3 6 3 12 17 12 31 0 19 -4 24 -16 19
-11 -4 -18 1 -21 14 -3 11 -9 20 -14 20 -5 0 -9 18 -9 40 0 54 -12 50 -34 -9
-9 -27 -26 -57 -37 -67 -10 -9 -19 -23 -19 -31 0 -7 -4 -13 -10 -13 -15 0 -12
15 10 43 25 31 25 37 1 37 -11 0 -23 -9 -27 -22 l-6 -21 -19 24 -19 24 -20
-25 c-10 -14 -21 -34 -23 -45 -2 -11 -5 -1 -6 23 0 26 -6 42 -14 42 -7 0 -25
11 -40 26 -28 26 -36 25 -74 -9 -21 -18 -23 -19 -23 -3 0 24 -19 10 -31 -22
-10 -25 -12 -26 -23 -9 -16 21 -26 22 -26 3 0 -8 -18 -33 -41 -56 -31 -31 -40
-47 -36 -66 2 -13 0 -24 -4 -24 -5 0 -9 18 -9 40 0 22 4 40 9 40 10 0 25 69
17 78 -3 3 -14 -2 -23 -10 -10 -9 -33 -19 -51 -23 -45 -9 -42 13 8 67 22 24
40 51 40 60 0 11 5 15 15 12 8 -4 15 -2 15 4 0 6 -6 12 -12 15 -10 3 -10 7 -1
17 6 7 9 19 6 26 -3 8 2 25 11 39 20 31 20 35 -1 35 -11 1 -3 9 20 21 40 21
46 33 22 43 -12 4 -13 11 -5 31 14 38 13 45 -12 55 -19 7 -19 9 -5 9 10 1 15
5 12 11 -8 13 14 52 26 45 12 -8 23 20 14 36 -6 8 -10 7 -17 -2 -6 -10 -7 -6
-3 11 13 47 30 80 42 80 7 0 10 7 6 15 -3 9 4 36 16 60 12 25 32 66 44 92 12
27 25 50 30 51 4 2 7 8 7 14 0 6 14 41 32 77 17 36 31 69 30 72 -1 4 21 58 49
120 28 63 59 136 71 164 11 27 23 54 28 60 4 5 11 21 15 35 4 14 25 62 46 107
21 45 41 94 45 108 3 14 10 25 14 25 4 0 11 12 14 26 4 15 25 64 47 110 21 46
39 86 39 89 0 4 11 30 24 58 38 85 70 186 61 195 -2 3 -7 -9 -11 -24 -4 -16
-15 -38 -24 -49 -10 -11 -21 -31 -25 -44 -7 -24 -8 -24 -21 -6 -8 10 -14 30
-14 44 l-1 26 -15 -27 c-18 -35 -31 -35 -46 -3 -20 44 -28 27 -28 -55 0 -73
-2 -80 -20 -80 -17 0 -20 7 -20 40 0 22 -4 40 -10 40 -5 0 -10 18 -10 40 0 29
-4 40 -15 40 -11 0 -15 -11 -15 -40 l0 -40 -69 0 c-68 0 -70 0 -73 -27 l-4
-28 -14 27 c-7 16 -16 28 -19 28 -11 0 -42 -66 -38 -80 2 -8 2 -12 0 -7 -3 4
-11 7 -19 7 -18 0 -18 31 1 56 8 10 14 28 14 39 0 19 0 19 -13 3 -7 -10 -21
-18 -30 -18 -9 0 -16 -7 -16 -16 0 -15 -11 -16 -90 -10 l-90 8 0 -31 c0 -29
-2 -31 -40 -31 -22 0 -40 -4 -40 -10 0 -6 -33 -10 -79 -10 l-78 0 2 48 c2 31
1 34 -2 10 -2 -21 -8 -38 -14 -38 -5 0 -9 -18 -9 -40 0 -22 5 -40 10 -40 6 0
10 -9 10 -20 0 -26 -20 -26 -27 0 -3 11 -12 20 -19 20 -10 0 -14 13 -14 40 0
22 -4 40 -10 40 -5 0 -10 -17 -10 -38 0 -40 -20 -67 -67 -91 -19 -10 -23 -9
-23 4 0 11 -10 15 -35 15 -24 0 -35 5 -35 15 0 11 11 15 40 15 22 0 40 5 40
10 0 6 -18 10 -40 10 -22 0 -40 -4 -40 -10 0 -5 -9 -10 -20 -10 -17 0 -20 7
-20 40 0 22 -4 40 -10 40 -5 0 -10 -18 -10 -40 0 -23 -5 -40 -11 -40 -8 0 -10
-18 -7 -57 3 -32 3 -50 1 -40 -3 11 -14 17 -34 17 -27 0 -29 2 -29 40 0 30 -4
40 -16 40 -14 0 -16 -8 -11 -55 l6 -55 -39 0 -39 0 6 55 c5 47 3 55 -11 55
-13 0 -16 -13 -16 -80 l0 -80 -30 0 c-28 0 -30 2 -30 40 0 22 -4 40 -10 40 -5
0 -10 -18 -10 -40 0 -36 -3 -40 -24 -40 -22 0 -25 -5 -29 -42 -2 -27 -5 -10
-7 42 l-3 85 -12 -85 c-9 -63 -13 -74 -14 -42 0 23 -5 42 -10 42 -6 0 -12 19
-14 43 l-4 42 -1 -42 -2 -43 -59 0 c-46 0 -60 4 -65 17 -6 14 -9 14 -26 -5
-17 -18 -28 -21 -65 -15 -40 5 -45 3 -45 -13 -1 -18 -1 -18 -14 -1 -7 9 -25
17 -40 17 -20 0 -26 5 -26 21 0 11 -4 17 -10 14 -16 -10 -12 -55 5 -55 14 0
35 -29 35 -49 0 -6 -11 -11 -25 -11 -20 0 -25 5 -25 25 0 21 -5 25 -30 25 -27
0 -30 3 -30 30 0 23 -4 30 -20 30 -16 0 -40 26 -40 44 0 3 12 6 28 6 l27 1
-28 24 c-15 14 -32 25 -38 25 -5 0 -9 -29 -9 -65 0 -55 3 -65 17 -65 14 0 15
-2 4 -12 -11 -10 -14 -10 -18 0 -3 6 -16 12 -29 12 -21 0 -24 4 -24 40 0 29
-4 40 -15 40 -9 0 -15 -9 -15 -25 0 -22 -4 -25 -40 -25 -29 0 -40 -4 -40 -15
0 -12 -13 -15 -55 -15 l-55 0 0 -40 0 -40 55 0 c42 0 55 -3 55 -15 0 -12 -16
-15 -80 -15 -64 0 -80 3 -80 15 0 8 -4 15 -10 15 -5 0 -10 18 -10 40 l0 40
-40 0 -40 0 0 -40 c0 -33 -3 -40 -20 -40 -16 0 -20 7 -20 36 0 33 -21 70 -33
57 -3 -3 -12 17 -20 43 l-14 49 -7 -65 c-19 -205 -26 -815 -26 -2416 l0 -1784
8001 0 8002 0 -4 2395 c-3 1664 -7 2395 -14 2395 -6 0 -15 -4 -20 -9z m-13630
-391 c-3 -5 -10 -10 -16 -10 -5 0 -9 5 -9 10 0 6 7 10 16 10 8 0 12 -4 9 -10z
m175 -30 c0 -4 -7 -10 -15 -14 -10 -4 -15 1 -15 14 0 13 5 18 15 14 8 -4 15
-10 15 -14z m-220 -10 c0 -11 -4 -20 -10 -20 -5 0 -10 9 -10 20 0 11 5 20 10
20 6 0 10 -9 10 -20z m110 -20 c0 -5 -5 -10 -11 -10 -5 0 -7 5 -4 10 3 6 8 10
11 10 2 0 4 -4 4 -10z m-883 -112 c-3 -8 -6 -5 -6 6 -1 11 2 17 5 13 3 -3 4
-12 1 -19z m-1437 -98 c0 -22 -4 -40 -10 -40 -5 0 -11 -19 -11 -42 l-2 -43 -7
50 c-15 91 -12 115 10 115 17 0 20 -7 20 -40z m1214 3 c-9 -52 -14 -54 -14 -5
0 23 5 42 10 42 7 0 8 -14 4 -37z m146 27 c0 -5 -18 -10 -40 -10 -22 0 -40 5
-40 10 0 6 18 10 40 10 22 0 40 -4 40 -10z m-480 -50 c0 -11 -7 -20 -15 -20
-8 0 -15 9 -15 20 0 11 7 20 15 20 8 0 15 -9 15 -20z m284 -30 c-7 -7 -19 -7
-35 -1 -23 9 -22 10 11 10 23 1 31 -2 24 -9z m10384 -698 c2 -7 -3 -12 -12
-12 -9 0 -16 7 -16 16 0 17 22 14 28 -4z m132 -27 c0 -11 -11 -15 -40 -15 -29
0 -40 4 -40 15 0 11 11 15 40 15 29 0 40 -4 40 -15z m60 -5 c-6 -11 -15 -20
-20 -20 -5 0 -14 9 -20 20 -10 18 -8 20 20 20 28 0 30 -2 20 -20z m596 13 c-4
-4 -23 -6 -42 -5 -23 2 -33 -1 -29 -8 4 -6 -8 -10 -32 -9 l-38 1 35 13 c36 14
119 20 106 8z m-1571 -303 c4 -6 -5 -10 -19 -10 -14 0 -26 5 -26 10 0 6 9 10
19 10 11 0 23 -4 26 -10z m740 0 c3 -5 -2 -10 -12 -10 -10 0 -38 -8 -63 -16
-53 -19 -125 -35 -113 -24 4 3 37 15 73 25 36 10 69 22 75 27 12 11 32 10 40
-2z m-577 -78 c2 -7 -3 -12 -12 -12 -9 0 -16 7 -16 16 0 17 22 14 28 -4z m352
11 c-14 -3 -29 -9 -34 -14 -6 -5 -17 -9 -25 -9 -10 1 -7 6 9 15 14 8 36 14 50
13 l25 -1 -25 -4z m-106 -32 c-17 -4 -37 -11 -45 -15 -8 -4 -5 0 5 8 11 9 31
16 45 15 24 -1 24 -2 -5 -8z m-274 -11 c0 -5 -4 -10 -10 -10 -5 0 -10 5 -10
10 0 6 5 10 10 10 6 0 10 -4 10 -10z m207 -16 c-3 -3 -12 -4 -19 -1 -8 3 -5 6
6 6 11 1 17 -2 13 -5z m-52 -14 c-27 -12 -43 -12 -25 0 8 5 22 9 30 9 10 0 8
-3 -5 -9z m-155 -10 c0 -5 -4 -10 -10 -10 -5 0 -10 5 -10 10 0 6 5 10 10 10 6
0 10 -4 10 -10z m-240 -14 c0 -2 -7 -7 -16 -10 -8 -3 -12 -2 -9 4 6 10 25 14
25 6z m280 -5 c0 -12 -30 -22 -43 -14 -7 4 -3 9 9 14 26 10 34 10 34 0z m-91
-7 c32 -7 43 -24 16 -24 -8 0 -34 -9 -58 -19 -23 -11 -67 -25 -99 -31 -31 -6
-80 -20 -109 -31 -30 -10 -61 -19 -69 -19 -23 0 32 26 72 34 19 3 49 17 68 31
24 17 40 23 58 18 18 -4 29 -1 39 13 9 13 16 15 21 8 5 -8 14 -8 32 -1 l25 10
-25 7 c-31 10 -13 12 29 4z m-1009 -90 c0 -8 -4 -12 -10 -9 -5 3 -10 10 -10
16 0 5 5 9 10 9 6 0 10 -7 10 -16z m370 6 c0 -5 -4 -10 -10 -10 -5 0 -10 5
-10 10 0 6 5 10 10 10 6 0 10 -4 10 -10z m220 -20 c0 -5 -9 -10 -21 -10 -11 0
-17 5 -14 10 3 6 13 10 21 10 8 0 14 -4 14 -10z m-80 -24 c0 -11 -19 -15 -25
-6 -3 5 1 10 9 10 9 0 16 -2 16 -4z m148 -3 c-10 -2 -26 -2 -35 0 -10 3 -2 5
17 5 19 0 27 -2 18 -5z m-63 -13 c-7 -12 -85 -33 -93 -26 -7 7 57 35 81 36 10
0 15 -4 12 -10z m-885 -18 c0 -5 -7 -17 -15 -28 -14 -18 -14 -18 -15 9 0 17 5
27 15 27 8 0 15 -4 15 -8z m84 -4 c5 -10 7 -10 12 0 3 6 22 12 41 12 31 0 34
-2 23 -15 -7 -9 -19 -14 -27 -11 -8 3 -16 -1 -19 -9 -8 -20 -34 -19 -50 3 -13
16 -13 16 -14 -3 -1 -20 -1 -20 -15 -1 -8 11 -15 23 -15 28 0 13 58 9 64 -4z
m626 -28 c0 -5 -2 -10 -4 -10 -2 0 -12 -3 -22 -7 -16 -6 -17 -5 -4 10 17 19
30 22 30 7z m47 4 c-3 -3 -12 -4 -19 -1 -8 3 -5 6 6 6 11 1 17 -2 13 -5z
m-627 -46 c0 -5 -18 -8 -40 -8 -22 0 -40 3 -40 8 0 4 18 7 40 7 22 0 40 -3 40
-7z m-4793 -20 c-3 -8 -6 -5 -6 6 -1 11 2 17 5 13 3 -3 4 -12 1 -19z m4433 2
c0 -11 -6 -20 -14 -20 -8 0 -17 -10 -19 -22 -2 -13 -5 -4 -6 20 -1 36 2 42 19
42 13 0 20 -7 20 -20z m92 8 c-9 -9 -15 -9 -24 0 -9 9 -7 12 12 12 19 0 21 -3
12 -12z m-37 -17 c3 -5 1 -12 -5 -16 -5 -3 -10 1 -10 9 0 18 6 21 15 7z m65
-7 c0 -8 -5 -12 -10 -9 -6 4 -8 11 -5 16 9 14 15 11 15 -7z m633 9 c-7 -2 -21
-2 -30 0 -10 3 -4 5 12 5 17 0 24 -2 18 -5z m-103 -17 c0 -2 -11 -6 -25 -8
-14 -3 -25 -1 -25 3 0 5 11 9 25 9 14 0 25 -2 25 -4z m-850 -21 c0 -8 -7 -15
-15 -15 -16 0 -20 12 -8 23 11 12 23 8 23 -8z m780 -16 c-14 -6 -32 -8 -40 -6
-9 2 -21 -2 -28 -10 -15 -15 -66 -18 -57 -3 9 14 63 28 110 28 36 1 38 0 15
-9z m-5680 -5 c0 -3 -5 -14 -10 -25 -9 -15 -15 -17 -30 -9 -31 17 -25 40 10
40 17 0 30 -3 30 -6z m260 -15 c0 -17 -3 -19 -13 -10 -17 14 -27 4 -27 -26 0
-12 -4 -23 -10 -23 -5 0 -10 18 -10 40 0 38 2 40 30 40 24 0 30 -4 30 -21z
m378 9 c-3 -7 -11 -13 -18 -13 -7 0 -15 6 -17 13 -3 7 4 12 17 12 13 0 20 -5
18 -12z m4749 -40 c-3 -8 -6 -5 -6 6 -1 11 2 17 5 13 3 -3 4 -12 1 -19z m103
7 c0 -8 -7 -15 -15 -15 -8 0 -15 7 -15 15 0 8 7 15 15 15 8 0 15 -7 15 -15z
m-4970 -26 c7 -11 9 -23 6 -27 -3 -3 -6 0 -6 6 0 7 -9 12 -20 12 -20 0 -26 11
-13 23 11 12 22 8 33 -14z m-1355 -9 c-3 -5 -16 -10 -28 -9 -20 1 -20 2 3 9
14 4 26 8 28 9 2 1 0 -3 -3 -9z m5571 -12 c-3 -7 -9 -21 -12 -30 -7 -20 -20
-23 -29 -8 -8 13 17 50 33 50 8 0 11 -6 8 -12z m157 5 c-7 -2 -19 -2 -25 0 -7
3 -2 5 12 5 14 0 19 -2 13 -5z m464 1 c-3 -3 -12 -4 -19 -1 -8 3 -5 6 6 6 11
1 17 -2 13 -5z m-7017 -14 c0 -5 -2 -10 -4 -10 -3 0 -8 5 -11 10 -3 6 -1 10 4
10 6 0 11 -4 11 -10z m-240 -16 c0 -8 -5 -12 -10 -9 -6 4 -8 11 -5 16 9 14 15
11 15 -7z m3740 -4 c0 -13 -7 -20 -20 -20 -13 0 -20 7 -20 20 0 13 7 20 20 20
13 0 20 -7 20 -20z m-3555 0 c-3 -5 -10 -10 -16 -10 -5 0 -9 5 -9 10 0 6 7 10
16 10 8 0 12 -4 9 -10z m6935 -5 c0 -8 -9 -15 -20 -15 -25 0 -26 17 -2 23 9 3
18 5 20 6 1 0 2 -6 2 -14z m-5290 -26 c0 -5 -4 -9 -10 -9 -5 0 -10 7 -10 16 0
8 5 12 10 9 6 -3 10 -10 10 -16z m1416 0 c3 -5 -2 -9 -10 -9 -9 0 -16 -4 -16
-10 0 -5 -4 -10 -10 -10 -5 0 -10 11 -10 24 0 19 4 23 20 19 11 -3 23 -9 26
-14z m49 1 c3 -5 1 -10 -4 -10 -6 0 -11 5 -11 10 0 6 2 10 4 10 3 0 8 -4 11
-10z m-315 -14 c0 -3 -4 -8 -10 -11 -5 -3 -10 -1 -10 4 0 6 5 11 10 11 6 0 10
-2 10 -4z m60 -6 c0 -5 -2 -10 -4 -10 -3 0 -8 5 -11 10 -3 6 -1 10 4 10 6 0
11 -4 11 -10z m290 -30 c0 -22 -4 -40 -10 -40 -5 0 -10 18 -10 40 0 22 5 40
10 40 6 0 10 -18 10 -40z m210 0 c0 -43 -14 -54 -24 -17 -10 37 -7 57 9 57 11
0 15 -11 15 -40z m3336 -6 c-6 -16 -63 -19 -86 -4 -16 10 -14 11 40 13 20 1
35 7 36 15 3 24 6 27 11 9 3 -10 2 -25 -1 -33z m129 36 c-3 -5 -12 -10 -20
-10 -8 0 -17 5 -20 10 -4 6 5 10 20 10 15 0 24 -4 20 -10z m-3825 -19 c0 -6
-4 -13 -10 -16 -5 -3 -10 1 -10 9 0 9 5 16 10 16 6 0 10 -4 10 -9z m97 -38
c-3 -10 -5 -4 -5 12 0 17 2 24 5 18 2 -7 2 -21 0 -30z m-647 7 c0 -5 -7 -10
-16 -10 -8 0 -12 5 -9 10 3 6 10 10 16 10 5 0 9 -4 9 -10z m1260 -10 c0 -5 -4
-10 -10 -10 -5 0 -10 5 -10 10 0 6 5 10 10 10 6 0 10 -4 10 -10z m2855 0 c3
-5 3 -10 -2 -10 -4 0 -19 -3 -33 -6 -24 -6 -25 -6 -5 9 24 19 32 21 40 7z
m-3145 -30 c0 -5 -7 -10 -15 -10 -8 0 -15 5 -15 10 0 6 7 10 15 10 8 0 15 -4
15 -10z m3070 0 c0 -5 -15 -10 -32 -10 -18 0 -43 -3 -55 -6 -13 -4 -23 -2 -23
4 0 6 19 13 43 15 23 2 48 4 55 5 6 1 12 -2 12 -8z m-220 -22 c0 -16 -3 -19
-11 -11 -6 6 -8 16 -5 22 11 17 16 13 16 -11z m-3970 -4 c0 -3 -7 -12 -15 -20
-12 -13 -15 -13 -15 -1 0 7 3 17 7 20 8 8 23 9 23 1z m1527 -16 c-3 -8 -6 -5
-6 6 -1 11 2 17 5 13 3 -3 4 -12 1 -19z m518 -8 c3 -5 1 -10 -4 -10 -6 0 -11
5 -11 10 0 6 2 10 4 10 3 0 8 -4 11 -10z m65 0 c0 -5 -7 -10 -16 -10 -8 0 -12
5 -9 10 3 6 10 10 16 10 5 0 9 -4 9 -10z m1625 -79 c-6 -5 -21 -10 -35 -11
-44 -4 -47 3 -5 10 22 4 42 8 45 9 2 0 0 -3 -5 -8z m-661 -99 c-6 -4 -14 -16
-18 -27 -6 -13 -10 -16 -13 -7 -6 15 14 42 31 42 8 0 8 -3 0 -8z m76 -62 c8
-14 8 -26 1 -38 -10 -15 -11 -15 -17 5 -3 12 -11 20 -17 19 -7 -2 -9 -1 -4 1
4 3 7 11 7 19 0 21 18 17 30 -6z m64 -25 c-4 -8 -8 -15 -10 -15 -2 0 -4 7 -4
15 0 8 4 15 10 15 5 0 7 -7 4 -15z"/>
<path d="M2722 4668 c6 -18 28 -21 28 -4 0 9 -7 16 -16 16 -9 0 -14 -5 -12
-12z"/>
<path d="M2151 4574 c0 -11 3 -14 6 -6 3 7 2 16 -1 19 -3 4 -6 -2 -5 -13z"/>
<path d="M2400 4570 c0 -5 7 -10 15 -10 8 0 15 5 15 10 0 6 -7 10 -15 10 -8 0
-15 -4 -15 -10z"/>
<path d="M1950 4520 c0 -36 3 -40 25 -40 23 0 25 4 25 40 0 36 -2 40 -25 40
-22 0 -25 -4 -25 -40z"/>
<path d="M1830 4442 l0 -37 45 3 c59 5 64 32 5 32 -22 0 -40 5 -40 10 0 6 18
10 40 10 22 0 40 5 40 10 0 6 -20 10 -45 10 l-45 0 0 -38z"/>
<path d="M26 4341 c-4 -7 -5 -15 -2 -18 9 -9 19 4 14 18 -4 11 -6 11 -12 0z"/>
<path d="M1200 4340 c0 -6 33 -10 80 -10 47 0 80 4 80 10 0 6 -33 10 -80 10
-47 0 -80 -4 -80 -10z"/>
<path d="M12700 3636 c0 -7 -8 -16 -18 -18 -15 -4 -17 -13 -12 -54 l5 -49 3
41 c2 32 8 43 23 47 19 5 28 47 9 47 -5 0 -10 -6 -10 -14z"/>
<path d="M11680 3633 c0 -4 9 -14 21 -21 18 -12 20 -11 17 5 -3 17 -38 32 -38
16z"/>
<path d="M13238 3633 c7 -3 16 -2 19 1 4 3 -2 6 -13 5 -11 0 -14 -3 -6 -6z"/>
<path d="M12720 3552 c0 -29 4 -52 9 -52 8 0 3 90 -5 99 -2 2 -4 -19 -4 -47z"/>
<path d="M12760 3560 c0 -29 4 -40 15 -40 11 0 15 11 15 40 0 29 -4 40 -15 40
-11 0 -15 -11 -15 -40z"/>
<path d="M13058 3593 c6 -2 18 -2 25 0 6 3 1 5 -13 5 -14 0 -19 -2 -12 -5z"/>
<path d="M13060 3570 c0 -5 5 -10 10 -10 6 0 10 5 10 10 0 6 -4 10 -10 10 -5
0 -10 -4 -10 -10z"/>
<path d="M11520 3510 c0 -5 4 -10 9 -10 6 0 13 5 16 10 3 6 -1 10 -9 10 -9 0
-16 -4 -16 -10z"/>
<path d="M12883 3513 c-13 -2 -23 -9 -23 -14 0 -12 10 -11 40 6 25 15 23 16
-17 8z"/>
<path d="M12779 3484 c-9 -11 -7 -14 12 -14 38 0 56 16 25 22 -15 3 -31 0 -37
-8z"/>
<path d="M12472 3460 c0 -14 2 -19 5 -12 2 6 2 18 0 25 -3 6 -5 1 -5 -13z"/>
<path d="M12688 3433 c6 -2 18 -2 25 0 6 3 1 5 -13 5 -14 0 -19 -2 -12 -5z"/>
<path d="M11041 3234 c0 -11 3 -14 6 -6 3 7 2 16 -1 19 -3 4 -6 -2 -5 -13z"/>
<path d="M10823 3160 c0 -25 2 -35 4 -22 2 12 2 32 0 45 -2 12 -4 2 -4 -23z"/>
<path d="M2155 3180 c-3 -5 -1 -10 4 -10 6 0 11 5 11 10 0 6 -2 10 -4 10 -3 0
-8 -4 -11 -10z"/>
<path d="M10662 3103 c2 -10 10 -18 18 -18 8 0 16 8 18 18 2 12 -3 17 -18 17
-15 0 -20 -5 -18 -17z"/>
<path d="M9837 3073 c-4 -3 -7 -11 -7 -17 0 -6 5 -5 12 2 6 6 9 14 7 17 -3 3
-9 2 -12 -2z"/>
<path d="M9940 2895 c0 -8 7 -15 16 -15 14 0 14 3 4 15 -7 8 -14 15 -16 15 -2
0 -4 -7 -4 -15z"/>
<path d="M9840 2868 c0 -10 4 -18 8 -18 5 0 16 8 25 18 15 17 15 18 -8 18 -17
0 -25 -6 -25 -18z"/>
<path d="M9470 2800 c0 -5 5 -10 11 -10 5 0 7 5 4 10 -3 6 -8 10 -11 10 -2 0
-4 -4 -4 -10z"/>
<path d="M9406 2765 c-14 -8 -34 -20 -45 -27 -18 -12 -15 -14 26 -16 34 -1 50
3 59 16 7 9 14 20 14 23 0 15 -29 17 -54 4z m24 -19 c0 -3 -4 -8 -10 -11 -5
-3 -10 -1 -10 4 0 6 5 11 10 11 6 0 10 -2 10 -4z"/>
<path d="M9465 2730 c-3 -5 3 -10 15 -10 12 0 18 5 15 10 -3 6 -10 10 -15 10
-5 0 -12 -4 -15 -10z"/>
<path d="M4940 2708 c-18 -8 -21 -12 -9 -15 8 -2 28 3 45 12 22 11 25 15 9 14
-11 0 -31 -5 -45 -11z"/>
<path d="M4240 2689 c0 -5 5 -7 10 -4 6 3 10 8 10 11 0 2 -4 4 -10 4 -5 0 -10
-5 -10 -11z"/>
<path d="M5120 2684 c0 -8 5 -12 10 -9 6 4 8 11 5 16 -9 14 -15 11 -15 -7z"/>
<path d="M9315 2690 c-3 -5 1 -10 9 -10 8 0 18 5 21 10 3 6 -1 10 -9 10 -8 0
-18 -4 -21 -10z"/>
<path d="M9250 2653 c-14 -7 -18 -13 -10 -13 17 0 47 17 40 23 -3 2 -16 -2
-30 -10z"/>
<path d="M4620 2650 c0 -5 5 -10 10 -10 6 0 10 5 10 10 0 6 -4 10 -10 10 -5 0
-10 -4 -10 -10z"/>
<path d="M4860 2650 c-13 -8 -12 -10 3 -10 9 0 17 5 17 10 0 12 -1 12 -20 0z"/>
<path d="M4253 2643 c9 -2 23 -2 30 0 6 3 -1 5 -18 5 -16 0 -22 -2 -12 -5z"/>
<path d="M2552 2620 c0 -14 2 -19 5 -12 2 6 2 18 0 25 -3 6 -5 1 -5 -13z"/>
<path d="M2658 2633 c7 -3 16 -2 19 1 4 3 -2 6 -13 5 -11 0 -14 -3 -6 -6z"/>
<path d="M4400 2605 c0 -25 4 -35 13 -33 18 7 20 43 2 58 -13 11 -15 8 -15
-25z"/>
<path d="M5044 2589 c-14 -22 -23 -43 -20 -46 11 -11 36 7 36 27 0 11 6 20 14
20 15 0 28 24 19 34 -13 13 -24 5 -49 -35z"/>
<path d="M3500 2604 c-11 -12 -10 -18 3 -32 16 -15 17 -14 17 16 0 36 -2 38
-20 16z"/>
<path d="M3100 2601 c0 -6 5 -13 10 -16 6 -3 10 1 10 9 0 9 -4 16 -10 16 -5 0
-10 -4 -10 -9z"/>
<path d="M3750 2587 c0 -23 26 -33 45 -17 25 21 18 39 -15 37 -21 -1 -30 -7
-30 -20z"/>
<path d="M3940 2600 c0 -5 5 -10 10 -10 6 0 10 5 10 10 0 6 -4 10 -10 10 -5 0
-10 -4 -10 -10z"/>
<path d="M2850 2550 c0 -5 7 -10 15 -10 8 0 15 5 15 10 0 6 -7 10 -15 10 -8 0
-15 -4 -15 -10z"/>
<path d="M3570 2546 c0 -14 24 -29 33 -19 3 3 3 11 0 19 -7 18 -33 18 -33 0z"/>
<path d="M5252 2523 c-1 -26 -7 -43 -14 -43 -9 0 -9 -3 0 -12 18 -18 24 -5 19
48 l-3 49 -2 -42z"/>
<path d="M9080 2529 c0 -5 5 -7 10 -4 6 3 10 8 10 11 0 2 -4 4 -10 4 -5 0 -10
-5 -10 -11z"/>
<path d="M5616 2521 c-4 -7 -5 -15 -2 -18 9 -9 19 4 14 18 -4 11 -6 11 -12 0z"/>
<path d="M4002 2500 c0 -14 2 -19 5 -12 2 6 2 18 0 25 -3 6 -5 1 -5 -13z"/>
<path d="M5140 2490 c0 -5 5 -10 10 -10 6 0 10 5 10 10 0 6 -4 10 -10 10 -5 0
-10 -4 -10 -10z"/>
<path d="M5088 2483 c7 -3 16 -2 19 1 4 3 -2 6 -13 5 -11 0 -14 -3 -6 -6z"/>
<path d="M5944 2478 c-5 -8 -2 -9 11 -5 11 5 22 1 31 -10 12 -16 13 -16 14 -2
0 26 -43 39 -56 17z"/>
<path d="M5710 2470 c0 -5 5 -10 10 -10 6 0 10 5 10 10 0 6 -4 10 -10 10 -5 0
-10 -4 -10 -10z"/>
<path d="M5870 2470 c0 -5 5 -10 10 -10 6 0 10 5 10 10 0 6 -4 10 -10 10 -5 0
-10 -4 -10 -10z"/>
<path d="M5080 2435 c-15 -17 -37 -20 -42 -4 -2 6 -12 1 -22 -10 -19 -21 -19
-21 20 -21 58 0 84 10 84 31 0 23 -23 25 -40 4z"/>
<path d="M5273 2425 c7 -13 14 -20 15 -14 5 14 -6 39 -17 39 -5 0 -4 -11 2
-25z"/>
<path d="M6242 2410 c0 -14 2 -19 5 -12 2 6 2 18 0 25 -3 6 -5 1 -5 -13z"/>
<path d="M6285 2420 c-9 -14 -7 -16 25 -24 17 -5 21 -4 11 2 -7 5 -17 15 -21
22 -6 9 -9 9 -15 0z"/>
<path d="M6350 2410 c0 -5 5 -10 10 -10 6 0 10 5 10 10 0 6 -4 10 -10 10 -5 0
-10 -4 -10 -10z"/>
<path d="M6584 2404 c3 -9 6 -18 6 -20 0 -2 5 -4 10 -4 6 0 10 9 10 20 0 12
-7 20 -16 20 -11 0 -14 -5 -10 -16z"/>
<path d="M6670 2410 c0 -5 5 -10 10 -10 6 0 10 5 10 10 0 6 -4 10 -10 10 -5 0
-10 -4 -10 -10z"/>
<path d="M6716 2376 c3 -13 1 -27 -5 -30 -18 -12 -12 -26 10 -26 19 0 21 4 15
31 -3 17 -6 35 -6 40 0 5 -5 9 -10 9 -6 0 -8 -10 -4 -24z"/>
<path d="M6812 2371 c-24 -15 22 -20 49 -5 l24 13 -30 0 c-16 1 -36 -3 -43 -8z"/>
<path d="M6342 2358 c6 -18 28 -21 28 -4 0 9 -7 16 -16 16 -9 0 -14 -5 -12
-12z"/>
<path d="M6590 2330 c0 -5 5 -10 10 -10 6 0 10 5 10 10 0 6 -4 10 -10 10 -5 0
-10 -4 -10 -10z"/>
<path d="M6860 2323 c8 -3 19 -11 23 -17 6 -7 7 -6 4 4 -2 8 -12 16 -23 17
-13 2 -15 1 -4 -4z"/>
<path d="M7225 2321 c-3 -5 -1 -12 5 -16 12 -7 30 2 30 16 0 12 -27 12 -35 0z"/>
<path d="M7730 2255 c-10 -12 -10 -15 3 -15 8 0 18 -6 20 -12 3 -7 6 -1 6 15
1 30 -10 35 -29 12z"/>
<path d="M7800 2195 c0 -8 9 -15 20 -15 11 0 20 7 20 15 0 8 -9 15 -20 15 -11
0 -20 -7 -20 -15z"/>
<path d="M8115 2179 c-10 -15 0 -21 27 -17 l23 3 -22 13 c-15 8 -24 9 -28 1z"/>
<path d="M8140 2076 c0 -2 7 -6 15 -10 8 -3 15 -1 15 4 0 6 -7 10 -15 10 -8 0
-15 -2 -15 -4z"/>
<path d="M8230 2075 c0 -5 5 -17 10 -25 5 -8 10 -10 10 -5 0 6 -5 17 -10 25
-5 8 -10 11 -10 5z"/>
</g>
</svg>
