<svg width="73.51" height="50.27" viewBox="0 0 73.51 50.27" xmlns="http://www.w3.org/2000/svg" xmlns:xlink="http://www.w3.org/1999/xlink" overflow="visible"><defs></defs><g id="Upload_1_"><path d="M48.77 40.37 37.43 29.91C37.05 29.56 36.47 29.56 36.09 29.91L24.74 40.37C24.08 40.98 24.51 42.09 25.41 42.09L26.82 42.09C27.37 42.09 27.81 42.53 27.81 43.08L27.81 49.28C27.81 49.83 28.25 50.27 28.8 50.27L44.7 50.27C45.25 50.27 45.69 49.83 45.69 49.28L45.69 43.08C45.69 42.53 46.13 42.09 46.68 42.09L48.09 42.09C49 42.09 49.43 40.98 48.77 40.37Z" id="XMLID_2_" fill="#A3C53A"/><path d="M67.88 25.2C66.69 18.65 60.96 13.69 54.07 13.69 52.88 13.69 51.73 13.85 50.63 14.13 47.82 5.91 40.05 0 30.89 0 19.63 0 10.48 8.91 10.04 20.05 4.42 20.49 0 25.17 0 30.9 0 36.91 4.87 41.78 10.88 41.78L20.48 41.78C20.26 40.18 20.8 38.56 22.03 37.43L33.37 26.97C34.29 26.12 35.5 25.65 36.75 25.65 38 25.65 39.21 26.12 40.13 26.97L51.47 37.43C52.7 38.56 53.24 40.18 53.02 41.78L65.43 41.78 65.43 41.76C69.93 41.51 73.5 37.79 73.5 33.23 73.51 29.53 71.17 26.39 67.88 25.2Z" id="XMLID_1_" fill="#006443"/></g></svg>