<?xml version="1.0" encoding="UTF-8" standalone="no"?>
<!-- Created with Inkscape (http://www.inkscape.org/) -->

<svg
   width="64.283165mm"
   height="44.15237mm"
   viewBox="0 0 64.283165 44.15237"
   version="1.1"
   id="svg648"
   xmlns="http://www.w3.org/2000/svg"
   xmlns:svg="http://www.w3.org/2000/svg">
  <defs
     id="defs645" />
  <g
     id="layer1"
     transform="translate(-37.369054,-131.88126)">
    <g
       id="g134"
       transform="matrix(0.26458333,0,0,0.26458333,-355.55042,127.29935)">
      <path
         d="m 1549.5,132.98 h -62.42 c -1.12,0 -2.03,-0.91 -2.03,-2.03 V 70.56 c 0,-1.12 0.91,-2.03 2.03,-2.03 h 62.42 z"
         fill="#a3c53a"
         id="path118" />
      <path
         d="m 1532.85,177.9 h -22.18 c -1.21,0 -2.19,-0.98 -2.19,-2.19 v -49.76 h 26.56 v 49.76 c 0.01,1.21 -0.98,2.19 -2.19,2.19 z"
         fill="#a3c53a"
         id="path120" />
      <path
         d="m 1644.17,182.84 -81.2,-49.86 V 68.53 l 81.2,-49.86 c 6.92,-3.9 15.48,1.1 15.48,9.04 V 173.8 c 0,7.94 -8.56,12.94 -15.48,9.04 z"
         fill="#036544"
         id="path122" />
      <g
         id="g132">
        <path
           d="m 1721.08,93.82 h -36.91 c -3.83,0 -6.93,3.1 -6.93,6.93 0,3.83 3.1,6.93 6.93,6.93 h 36.91 c 3.83,0 6.93,-3.1 6.93,-6.93 0,-3.83 -3.1,-6.93 -6.93,-6.93 z"
           fill="#a3c53a"
           id="path124" />
        <g
           id="g130">
          <path
             d="m 1722.26,145.67 -33.29,-15.95 c -3.45,-1.65 -7.59,-0.2 -9.25,3.26 -1.65,3.45 -0.2,7.59 3.26,9.25 l 33.29,15.95 c 3.45,1.65 7.59,0.2 9.25,-3.26 1.66,-3.46 0.2,-7.6 -3.26,-9.25 z"
             fill="#a3c53a"
             id="path126" />
          <path
             d="m 1682.98,59.28 33.29,-15.95 c 3.45,-1.65 7.59,-0.2 9.25,3.26 1.65,3.45 0.2,7.59 -3.26,9.25 l -33.29,15.95 c -3.45,1.65 -7.59,0.2 -9.25,-3.26 -1.65,-3.46 -0.19,-7.6 3.26,-9.25 z"
             fill="#a3c53a"
             id="path128" />
        </g>
      </g>
    </g>
  </g>
</svg>
