<svg width="38.92" height="58.67" viewBox="0 0 38.92 58.67" xmlns="http://www.w3.org/2000/svg" xmlns:xlink="http://www.w3.org/1999/xlink" overflow="visible"><defs></defs><g id="File_1_"><path d="M30.92 8 30.92 0 38.92 8Z" id="XMLID_7_" fill="#A3C53A"/><path d="M26.92 12 26.92 0 5.41 0C2.42 0 0 2.42 0 5.41L0 53.26C0 56.25 2.42 58.67 5.41 58.67L38.92 58.67 38.92 12 26.92 12ZM32.53 47.52 6.38 47.52 6.38 44.52 32.53 44.52 32.53 47.52ZM32.53 39.93 6.38 39.93 6.38 36.93 32.53 36.93 32.53 39.93ZM32.53 32.34 6.38 32.34 6.38 29.34 32.53 29.34 32.53 32.34ZM32.53 24.74 6.38 24.74 6.38 21.74 32.53 21.74 32.53 24.74Z" id="XMLID_1_" fill="#006443"/></g></svg>