<?xml version="1.0" encoding="UTF-8" standalone="no"?>
<!-- Created with Inkscape (http://www.inkscape.org/) -->

<svg
   width="43.410187mm"
   height="57.812695mm"
   viewBox="0 0 43.410187 57.812695"
   version="1.1"
   id="svg571"
   xmlns="http://www.w3.org/2000/svg"
   xmlns:svg="http://www.w3.org/2000/svg">
  <defs
     id="defs568" />
  <g
     id="layer1"
     transform="translate(-16.209803,-111.26386)">
    <g
       id="g150"
       transform="matrix(0.26458333,0,0,0.26458333,-112.81955,111.26386)">
      <path
         d="m 613.58,51.4 -4.07,25.84 c -0.43,2.65 -3.36,4.07 -5.68,2.74 l -2.04,-1.14 c -5.25,20.35 -17.56,34.74 -32.09,34.74 -14.53,0 -26.84,-14.39 -32.09,-34.74 l -2.04,1.14 c -2.32,1.33 -5.25,-0.09 -5.68,-2.74 L 525.82,51.4 c -0.52,-3.08 3.08,-5.11 5.44,-3.08 l 3.83,3.27 C 536.67,22.48 551.72,0 569.7,0 c 17.99,0 33.04,22.48 34.6,51.59 l 3.83,-3.27 c 2.37,-2.03 5.97,0 5.45,3.08 z"
         fill="#a3c53a"
         id="path136" />
      <path
         d="m 513.65,40.28 v 0 c 17.77,11.29 40.57,10.85 57.88,-1.12 l 6.14,-4.25 c 7.25,-5.01 17.22,-1.51 19.83,6.9 1.04,3.36 1.76,7.36 1.82,12.04 0.02,1.62 2.06,2.32 3.04,1.03 4.27,-5.62 11.26,-15.93 11.26,-23.15 0,0 -4.67,-31.73 -43.93,-31.73 -39.24,0 -56.04,40.28 -56.04,40.28 z"
         fill="#036544"
         id="path138" />
      <rect
         x="566.21002"
         y="123.56"
         width="6.9899998"
         height="84.279999"
         fill="#a3c53a"
         id="rect140" />
      <path
         d="m 563.6,123.58 v 84.25 l -48.32,-4.5 c 1.42,-4.35 2.22,-8.99 2.22,-13.73 v -10.37 c 0,-6.34 -6.67,-10.32 -12.21,-7.38 l -5.25,2.79 v -52.58 c 0,-2.41 2.08,-4.26 4.45,-4.02 z"
         fill="#036544"
         id="path142" />
      <path
         d="m 512.43,183.74 v 7.38 c 0,11.22 -6.15,21.44 -16.05,26.69 -3.93,2.08 -8.71,-0.76 -8.71,-5.21 v -22.06 c 0,-2.18 1.23,-4.17 3.17,-5.21 l 12.92,-6.86 c 3.93,-2.07 8.67,0.77 8.67,5.27 z"
         fill="#a3c53a"
         id="path144" />
      <path
         d="m 575.81,123.58 v 84.25 l 48.32,-4.5 c -1.42,-4.35 -2.22,-8.99 -2.22,-13.73 v -10.37 c 0,-6.34 6.67,-10.32 12.21,-7.38 l 5.25,2.79 v -52.58 c 0,-2.41 -2.08,-4.26 -4.45,-4.02 z"
         fill="#036544"
         id="path146" />
      <path
         d="m 626.98,183.74 v 7.38 c 0,11.22 6.15,21.44 16.05,26.69 3.93,2.08 8.71,-0.76 8.71,-5.21 v -22.06 c 0,-2.18 -1.23,-4.17 -3.17,-5.21 l -12.92,-6.86 c -3.94,-2.07 -8.67,0.77 -8.67,5.27 z"
         fill="#a3c53a"
         id="path148" />
    </g>
  </g>
</svg>
