<svg width="72.73" height="54.92" viewBox="0 0 72.73 54.92" xmlns="http://www.w3.org/2000/svg" xmlns:xlink="http://www.w3.org/1999/xlink" overflow="visible"><defs></defs><g id="Mail_1_"><path d="M4.75 0.8 33.68 25.19C35.23 26.5 37.51 26.5 39.06 25.19L67.98 0.8C66.91 0.29 65.71 0 64.44 0L8.29 0C7.02 0 5.82 0.29 4.75 0.8Z" id="XMLID_2_" fill="#A3C53A"/><path d="M33.68 30.37 1.64 3.35C0.61 4.73 0 6.44 0 8.29L0 46.63C0 51.21 3.71 54.92 8.29 54.92L64.45 54.92C69.03 54.92 72.74 51.21 72.74 46.63L72.74 8.29C72.74 6.44 72.13 4.74 71.1 3.36L39.06 30.37C37.5 31.68 35.23 31.68 33.68 30.37Z" id="XMLID_1_" fill="#006443"/></g></svg>