<svg width="64.26" height="45.96" viewBox="0 0 64.26 45.96" xmlns="http://www.w3.org/2000/svg" xmlns:xlink="http://www.w3.org/1999/xlink" overflow="visible"><defs></defs><g id="Folder_1_"><path d="M35 17.73 25.25 17.73 13.85 17.73C12.73 17.73 11.71 18.4 11.27 19.44L0 45.96 23.75 45.96 33.5 45.96 53.69 45.96 64.03 21.63C64.82 19.78 63.46 17.73 61.45 17.73L35 17.73Z" id="XMLID_2_" fill="#A3C53A"/><path d="M7.59 17.87C8.66 15.35 11.12 13.73 13.85 13.73L53.52 13.73 53.52 5.36 21.75 5.36 21.75 0 7.24 0C3.24 0 0 3.24 0 7.24L0 35.74 7.59 17.87Z" id="XMLID_1_" fill="#006443"/></g></svg>