<svg width="62.48" height="63.35" viewBox="0 0 62.48 63.35" xmlns="http://www.w3.org/2000/svg" xmlns:xlink="http://www.w3.org/1999/xlink" overflow="visible"><defs></defs><g id="Home_1_"><g id="XMLID_2_"><path d="M35.47 4.16 35.47 4.16 32.46 1.15 31.24 0 30.02 1.15 27 4.17 16.34 14.83 1.76 29.41C-0.58 31.75-0.58 35.55 1.76 37.89L1.76 37.89 29.44 10.21C30.44 9.21 32.06 9.21 33.05 10.21L60.73 37.89 60.73 37.89C63.07 35.55 63.07 31.75 60.73 29.41L35.47 4.16Z" id="XMLID_3_" fill="#A3C53A"/></g><path d="M33.05 15.88 33.01 15.84C32.02 14.88 30.44 14.89 29.45 15.85L29.45 15.85 4.9 40.41 4.9 59.27C4.9 61.52 6.72 63.34 8.97 63.34L23.39 63.34 23.39 42.94 39.06 42.94 39.06 63.35 53.48 63.35C55.73 63.35 57.55 61.53 57.55 59.28L57.55 40.37 33.05 15.88Z" id="XMLID_1_" fill="#006443"/></g></svg>