<svg width="40.07" height="58.52" viewBox="0 0 40.07 58.52" xmlns="http://www.w3.org/2000/svg" xmlns:xlink="http://www.w3.org/1999/xlink" overflow="visible"><defs></defs><g id="Address_1_"><circle cx="20.03" cy="16.99" r="4.43" id="XMLID_5_" fill="#A3C53A"/><path d="M20.03 0C10.65 0 3.04 7.61 3.04 16.99 3.04 30.88 13.34 38.6 20.03 51.05 26.72 38.6 37.02 30.88 37.02 16.99 37.03 7.61 29.42 0 20.03 0ZM20.03 24.41C15.94 24.41 12.61 21.08 12.61 16.99 12.61 12.9 15.94 9.57 20.03 9.57 24.12 9.57 27.45 12.9 27.45 16.99 27.45 21.08 24.12 24.41 20.03 24.41Z" id="XMLID_2_" fill="#006443"/><path d="M25.98 47C24.81 48.75 23.69 50.55 22.66 52.46L20.03 57.35 17.4 52.46C16.37 50.55 15.25 48.74 14.08 47 5.93 47.75 0 49.98 0 52.63 0 55.88 8.97 58.52 20.03 58.52 31.09 58.52 40.06 55.88 40.06 52.63 40.07 49.98 34.14 47.75 25.98 47Z" id="XMLID_1_" fill="#A3C53A"/></g></svg>