<svg width="41" height="66.44" viewBox="0 0 41 66.44" xmlns="http://www.w3.org/2000/svg" xmlns:xlink="http://www.w3.org/1999/xlink" overflow="visible"><defs></defs><g id="Mobile_1_"><path d="M35.28 0 5.72 0C2.56 0 0 2.56 0 5.72L0 60.72C0 63.88 2.56 66.44 5.72 66.44L35.28 66.44C38.44 66.44 41 63.88 41 60.72L41 5.72C41 2.56 38.44 0 35.28 0ZM15.21 3.61 25.79 3.61C26.07 3.61 26.29 3.83 26.29 4.11 26.29 4.39 26.07 4.61 25.79 4.61L15.21 4.61C14.93 4.61 14.71 4.39 14.71 4.11 14.71 3.83 14.93 3.61 15.21 3.61ZM20.5 62.94C19.03 62.94 17.83 61.75 17.83 60.27 17.83 58.8 19.02 57.6 20.5 57.6 21.98 57.6 23.17 58.79 23.17 60.27 23.17 61.75 21.97 62.94 20.5 62.94ZM36 54.44 5 54.44 5 7.77 36 7.77 36 54.44Z" id="XMLID_6_" fill="#006443"/><g id="XMLID_1_"><path d="M32 38.65 32 34.03 9.79 11.82 9.84 11.77 9 11.77 9 15.65Z" id="XMLID_5_" fill="#A3C53A"/><path d="M32 28.38 32 11.77 15.4 11.77Z" id="XMLID_4_" fill="#A3C53A"/><path d="M9 21.31 9 36.82 22.62 50.44 32 50.44 32 44.31Z" id="XMLID_3_" fill="#A3C53A"/><path d="M9 42.48 9 50.44 16.96 50.44Z" id="XMLID_2_" fill="#A3C53A"/></g></g></svg>