<svg width="68.02" height="51.63" viewBox="0 0 68.02 51.63" xmlns="http://www.w3.org/2000/svg" xmlns:xlink="http://www.w3.org/1999/xlink" overflow="visible"><defs></defs><g id="Computer_1_"><path d="M63.93 0 4.09 0C1.83 0 0 1.83 0 4.09L0 40.4C0 42.66 1.83 44.49 4.09 44.49L25.25 44.49 25.25 48.78C19.87 49.04 16.24 49.53 16.24 50.1 16.24 50.94 24.2 51.62 34.01 51.62 43.82 51.62 51.78 50.94 51.78 50.1 51.78 49.53 48.15 49.04 42.77 48.78L42.77 44.5 63.93 44.5C66.19 44.5 68.02 42.67 68.02 40.41L68.02 4.09C68.02 1.83 66.19 0 63.93 0ZM64.02 40.41C64.02 40.46 63.98 40.5 63.93 40.5L4.09 40.5C4.04 40.5 4 40.46 4 40.41L4 4.09C4 4.04 4.04 4 4.09 4L63.92 4C63.97 4 64.01 4.04 64.01 4.09L64.01 40.41Z" id="XMLID_6_" fill="#006443"/><g id="XMLID_1_"><path d="M29.2 8 24.96 8 53.46 36.5 57.7 36.5Z" id="XMLID_5_" fill="#A3C53A"/><path d="M60.02 33.17 60.02 8 34.86 8Z" id="XMLID_4_" fill="#A3C53A"/><path d="M38.82 36.5 47.81 36.5 19.31 8 10.32 8Z" id="XMLID_3_" fill="#A3C53A"/><path d="M8 11.33 8 36.5 33.17 36.5Z" id="XMLID_2_" fill="#A3C53A"/></g></g></svg>