<svg width="71.67" height="61.83" viewBox="0 0 71.67 61.83" xmlns="http://www.w3.org/2000/svg" xmlns:xlink="http://www.w3.org/1999/xlink" overflow="visible"><defs></defs><g id="Print_1_"><path d="M53.42 61.83 18.25 61.83 21 52.17 50.67 52.17Z" id="XMLID_9_" fill="#A3C53A"/><path d="M63.75 20.61 53.9 20.61 53.9 26.8 17.77 26.8 17.77 20.61 7.92 20.61 0 31.27 0 49.42C0 54.34 3.99 58.34 8.92 58.34L15.09 58.34 17.98 48.17 53.69 48.17 56.58 58.34 62.75 58.34C67.67 58.34 71.67 54.35 71.67 49.42L71.67 31.27 63.75 20.61ZM9.16 37.98C8.19 37.98 7.4 37.19 7.4 36.22 7.4 35.25 8.19 34.46 9.16 34.46 10.13 34.46 10.92 35.25 10.92 36.22 10.92 37.19 10.13 37.98 9.16 37.98ZM15.43 37.98C14.46 37.98 13.67 37.19 13.67 36.22 13.67 35.25 14.46 34.46 15.43 34.46 16.4 34.46 17.19 35.25 17.19 36.22 17.19 37.19 16.4 37.98 15.43 37.98Z" id="XMLID_5_" fill="#006443"/><path d="M21.77 0 21.77 22.79 49.9 22.79 49.9 0 21.77 0ZM45.08 14.92 26.58 14.92 26.58 12.54 45.08 12.54 45.08 14.92ZM45.08 8.42 26.58 8.42 26.58 6.04 45.08 6.04 45.08 8.42Z" id="XMLID_1_" fill="#A3C53A"/></g></svg>