<svg width="2192.88" height="218.51" viewBox="0 0 2192.88 218.51" xmlns="http://www.w3.org/2000/svg" xmlns:xlink="http://www.w3.org/1999/xlink" overflow="visible"><defs></defs><g><path d="M90.29 45.14 90.29 78.32C90.29 84.94 84.92 90.31 78.3 90.31L78.3 90.31C71.68 90.31 66.31 84.94 66.31 78.32L66.31 45.52C66.31 33.83 56.83 24.35 45.14 24.35L45.14 24.35C33.45 24.35 23.97 33.83 23.97 45.52L23.97 78.32C23.97 84.94 18.6 90.31 11.98 90.31L11.98 90.31C5.37 90.31 0 84.95 0 78.33L0 45.14C0 20.21 20.21 0 45.14 0L45.14 0C70.08 0 90.29 20.21 90.29 45.14Z" fill="#036544"/><path d="M58.36 65.6 58.36 152.91C58.36 156.55 56.88 159.88 54.51 162.26 52.1 164.67 48.8 166.14 45.16 166.14 37.83 166.14 31.93 160.21 31.93 152.91L31.93 65.6C31.93 58.3 37.83 52.37 45.16 52.37 48.8 52.37 52.1 53.85 54.51 56.25 56.88 58.63 58.36 61.97 58.36 65.6Z" fill="#A3C53A"/><path d="M90.29 173.37 90.29 140.19C90.29 133.57 84.92 128.2 78.3 128.2L78.3 128.2C71.68 128.2 66.31 133.57 66.31 140.19L66.31 172.99C66.31 184.68 56.83 194.16 45.14 194.16L45.14 194.16C33.45 194.16 23.97 184.68 23.97 172.99L23.97 140.19C23.97 133.57 18.6 128.2 11.98 128.2L11.98 128.2C5.37 128.2 0 133.57 0 140.19L0 173.37C0 198.3 20.21 218.51 45.14 218.51L45.14 218.51C70.08 218.51 90.29 198.3 90.29 173.37Z" fill="#036544"/></g><g><path d="M1114.29 30.76C1114.29 47.71 1100.55 61.52 1083.53 61.52 1066.58 61.52 1052.77 47.72 1052.77 30.76 1052.77 13.75 1066.57 0 1083.53 0 1100.55 0 1114.29 13.74 1114.29 30.76Z" fill="#A3C53A"/><path d="M1111.99 67.93 1055.14 67.93C1046.24 67.93 1039.03 75.13 1039.03 84.03L1039.03 150.27C1039.03 159.17 1046.24 166.38 1055.14 166.38L1058.47 166.38 1058.47 206.22C1058.47 213 1063.98 218.51 1070.76 218.51L1096.31 218.51C1103.09 218.51 1108.6 213 1108.6 206.22L1108.6 166.38 1111.99 166.38C1120.89 166.38 1128.1 159.18 1128.1 150.27L1128.1 84.04C1128.1 75.14 1120.89 67.93 1111.99 67.93ZM1095.16 116.86 1097.95 132.85 1083.54 125.28 1069.19 132.85 1071.91 116.86 1060.29 105.54 1076.4 103.18 1083.54 88.65 1090.75 103.18 1106.79 105.54 1095.16 116.86Z" fill="#A3C53A"/><g><path d="M1195.98 88.91C1199.19 84.33 1201.11 78.78 1201.11 72.77 1201.11 57.2 1188.44 44.52 1172.86 44.52 1157.29 44.52 1144.61 57.19 1144.61 72.77 1144.61 78.78 1146.53 84.33 1149.74 88.91 1141.24 90.19 1134.69 97.47 1134.69 106.31L1134.69 154.09C1134.69 162.58 1140.71 169.69 1148.71 171.38L1148.71 194.43C1148.71 202.66 1155.4 209.35 1163.63 209.35L1182.06 209.35C1190.28 209.35 1196.98 202.66 1196.98 194.43L1196.98 171.38C1205 169.69 1211.04 162.58 1211.04 154.09L1211.04 106.31C1211.04 97.47 1204.49 90.2 1195.98 88.91ZM1172.87 56.63C1181.77 56.63 1189.01 63.87 1189.01 72.77 1189.01 80.79 1183.12 87.4 1175.45 88.65L1170.31 88.65C1162.64 87.41 1156.75 80.79 1156.75 72.77 1156.73 63.87 1163.97 56.63 1172.87 56.63ZM1198.93 154.08C1198.93 157.15 1196.42 159.64 1193.32 159.64L1184.86 159.64 1184.86 194.42C1184.86 195.97 1183.6 197.23 1182.05 197.23L1163.62 197.23C1162.07 197.23 1160.81 195.96 1160.81 194.42L1160.81 159.64 1152.35 159.64C1149.28 159.64 1146.79 157.14 1146.79 154.08L1146.79 106.3C1146.79 103.24 1149.29 100.74 1152.35 100.74L1170.28 100.74C1171.14 100.82 1171.97 101 1172.85 101 1173.73 101 1174.56 100.82 1175.42 100.74L1193.31 100.74C1196.4 100.74 1198.92 103.24 1198.92 106.3L1198.92 154.08Z" fill="#036544"/><path d="M1017.34 88.91C1020.55 84.33 1022.47 78.78 1022.47 72.77 1022.47 57.2 1009.8 44.52 994.22 44.52 978.65 44.52 965.97 57.19 965.97 72.77 965.97 78.78 967.89 84.33 971.1 88.91 962.6 90.18 956.05 97.46 956.05 106.31L956.05 154.09C956.05 162.58 962.07 169.69 970.06 171.38L970.06 194.43C970.06 202.66 976.75 209.35 984.98 209.35L1003.4 209.35C1011.63 209.35 1018.32 202.66 1018.32 194.43L1018.32 171.38C1026.34 169.69 1032.38 162.58 1032.38 154.09L1032.38 106.31C1032.39 97.47 1025.84 90.2 1017.34 88.91ZM994.22 56.63C1003.12 56.63 1010.36 63.87 1010.36 72.77 1010.36 80.79 1004.47 87.4 996.8 88.65L991.66 88.65C983.99 87.41 978.1 80.79 978.1 72.77 978.08 63.87 985.32 56.63 994.22 56.63ZM1020.28 154.08C1020.28 157.15 1017.77 159.64 1014.67 159.64L1006.21 159.64 1006.21 194.42C1006.21 195.97 1004.94 197.23 1003.4 197.23L984.98 197.23C983.43 197.23 982.17 195.96 982.17 194.42L982.17 159.64 973.71 159.64C970.65 159.64 968.15 157.14 968.15 154.08L968.15 106.3C968.15 103.24 970.65 100.74 973.71 100.74L991.64 100.74C992.5 100.82 993.33 101 994.21 101 995.09 101 995.92 100.82 996.78 100.74L1014.67 100.74C1017.76 100.74 1020.28 103.24 1020.28 106.3L1020.28 154.08Z" fill="#036544"/></g></g><g><path d="M1549.5 132.98 1487.08 132.98C1485.96 132.98 1485.05 132.07 1485.05 130.95L1485.05 70.56C1485.05 69.44 1485.96 68.53 1487.08 68.53L1549.5 68.53 1549.5 132.98Z" fill="#A3C53A"/><path d="M1532.85 177.9 1510.67 177.9C1509.46 177.9 1508.48 176.92 1508.48 175.71L1508.48 125.95 1535.04 125.95 1535.04 175.71C1535.05 176.92 1534.06 177.9 1532.85 177.9Z" fill="#A3C53A"/><path d="M1644.17 182.84 1562.97 132.98 1562.97 68.53 1644.17 18.67C1651.09 14.77 1659.65 19.77 1659.65 27.71L1659.65 173.8C1659.65 181.74 1651.09 186.74 1644.17 182.84Z" fill="#036544"/><g><path d="M1721.08 93.82 1684.17 93.82C1680.34 93.82 1677.24 96.92 1677.24 100.75 1677.24 104.58 1680.34 107.68 1684.17 107.68L1721.08 107.68C1724.91 107.68 1728.01 104.58 1728.01 100.75 1728.01 96.92 1724.91 93.82 1721.08 93.82Z" fill="#A3C53A"/><g><path d="M1722.26 145.67 1688.97 129.72C1685.52 128.07 1681.38 129.52 1679.72 132.98 1678.07 136.43 1679.52 140.57 1682.98 142.23L1716.27 158.18C1719.72 159.83 1723.86 158.38 1725.52 154.92 1727.18 151.46 1725.72 147.32 1722.26 145.67Z" fill="#A3C53A"/><path d="M1682.98 59.28 1716.27 43.33C1719.72 41.68 1723.86 43.13 1725.52 46.59 1727.17 50.04 1725.72 54.18 1722.26 55.84L1688.97 71.79C1685.52 73.44 1681.38 71.99 1679.72 68.53 1678.07 65.07 1679.53 60.93 1682.98 59.28Z" fill="#A3C53A"/></g></g></g><g><path d="M613.58 51.4 609.51 77.24C609.08 79.89 606.15 81.31 603.83 79.98L601.79 78.84C596.54 99.19 584.23 113.58 569.7 113.58 555.17 113.58 542.86 99.19 537.61 78.84L535.57 79.98C533.25 81.31 530.32 79.89 529.89 77.24L525.82 51.4C525.3 48.32 528.9 46.29 531.26 48.32L535.09 51.59C536.67 22.48 551.72 0 569.7 0 587.69 0 602.74 22.48 604.3 51.59L608.13 48.32C610.5 46.29 614.1 48.32 613.58 51.4Z" fill="#A3C53A"/><path d="M513.65 40.28 513.65 40.28C531.42 51.57 554.22 51.13 571.53 39.16L577.67 34.91C584.92 29.9 594.89 33.4 597.5 41.81 598.54 45.17 599.26 49.17 599.32 53.85 599.34 55.47 601.38 56.17 602.36 54.88 606.63 49.26 613.62 38.95 613.62 31.73 613.62 31.73 608.95 3.55271e-15 569.69 3.55271e-15 530.45 0 513.65 40.28 513.65 40.28Z" fill="#036544"/><rect x="566.21" y="123.56" width="6.99" height="84.28" fill="#A3C53A"/><path d="M563.6 123.58 563.6 207.83 515.28 203.33C516.7 198.98 517.5 194.34 517.5 189.6L517.5 179.23C517.5 172.89 510.83 168.91 505.29 171.85L500.04 174.64 500.04 122.06C500.04 119.65 502.12 117.8 504.49 118.04L563.6 123.58Z" fill="#036544"/><path d="M512.43 183.74 512.43 191.12C512.43 202.34 506.28 212.56 496.38 217.81 492.45 219.89 487.67 217.05 487.67 212.6L487.67 190.54C487.67 188.36 488.9 186.37 490.84 185.33L503.76 178.47C507.69 176.4 512.43 179.24 512.43 183.74Z" fill="#A3C53A"/><path d="M575.81 123.58 575.81 207.83 624.13 203.33C622.71 198.98 621.91 194.34 621.91 189.6L621.91 179.23C621.91 172.89 628.58 168.91 634.12 171.85L639.37 174.64 639.37 122.06C639.37 119.65 637.29 117.8 634.92 118.04L575.81 123.58Z" fill="#036544"/><path d="M626.98 183.74 626.98 191.12C626.98 202.34 633.13 212.56 643.03 217.81 646.96 219.89 651.74 217.05 651.74 212.6L651.74 190.54C651.74 188.36 650.51 186.37 648.57 185.33L635.65 178.47C631.71 176.4 626.98 179.24 626.98 183.74Z" fill="#A3C53A"/></g><g><path d="M2101.79 165.34C2101.79 175.38 2093.7 183.55 2083.66 183.55 2073.62 183.55 2065.45 175.39 2065.45 165.34 2065.45 155.3 2073.61 147.21 2083.66 147.21 2093.7 147.21 2101.79 155.3 2101.79 165.34Z" fill="#A3C53A"/><path d="M2119.28 218.51 2047.97 218.51C2047.97 205.79 2054.62 194.67 2064.66 188.38 2069.86 192.64 2076.44 195.17 2083.66 195.17 2090.88 195.17 2097.46 192.64 2102.66 188.38 2112.63 194.67 2119.28 205.8 2119.28 218.51Z" fill="#036544"/><path d="M2065.45 53.17C2065.45 43.13 2073.54 34.96 2083.58 34.96 2093.62 34.96 2101.79 43.12 2101.79 53.17 2101.79 63.21 2093.63 71.3 2083.58 71.3 2073.53 71.3 2065.45 63.22 2065.45 53.17Z" fill="#A3C53A"/><path d="M2047.97 0 2119.28 0C2119.28 12.72 2112.63 23.84 2102.59 30.13 2097.39 25.87 2090.81 23.34 2083.59 23.34 2076.37 23.34 2069.79 25.87 2064.59 30.13 2054.62 23.84 2047.97 12.72 2047.97 0Z" fill="#036544"/><path d="M2027.54 127.43C2017.5 127.43 2009.33 119.34 2009.33 109.3 2009.33 99.26 2017.49 91.09 2027.54 91.09 2037.58 91.09 2045.67 99.25 2045.67 109.3 2045.67 119.35 2037.58 127.43 2027.54 127.43Z" fill="#A3C53A"/><path d="M1974.37 144.91 1974.37 73.6C1987.09 73.6 1998.21 80.25 2004.5 90.29 2000.24 95.49 1997.71 102.07 1997.71 109.29 1997.71 116.51 2000.24 123.09 2004.5 128.29 1998.21 138.26 1987.08 144.91 1974.37 144.91Z" fill="#036544"/><path d="M2139.71 91.09C2149.75 91.09 2157.92 99.18 2157.92 109.22 2157.92 119.26 2149.76 127.43 2139.71 127.43 2129.67 127.43 2121.58 119.27 2121.58 109.22 2121.58 99.17 2129.66 91.09 2139.71 91.09Z" fill="#A3C53A"/><path d="M2192.88 73.6 2192.88 144.91C2180.16 144.91 2169.04 138.26 2162.75 128.22 2167.01 123.02 2169.54 116.44 2169.54 109.22 2169.54 102 2167.01 95.42 2162.75 90.22 2169.04 80.25 2180.16 73.6 2192.88 73.6Z" fill="#036544"/><path d="M2056.82 161.76C2049.72 168.86 2038.22 168.91 2031.12 161.81 2024.02 154.71 2024.02 143.16 2031.12 136.06 2038.22 128.96 2049.72 129.01 2056.82 136.11 2063.92 143.21 2063.92 154.66 2056.82 161.76Z" fill="#A3C53A"/><path d="M2031.58 211.72 1981.16 161.3C1990.15 152.31 2002.72 149.14 2014.26 151.8 2014.92 158.49 2017.79 164.93 2022.89 170.04 2028 175.15 2034.44 178.01 2041.13 178.67 2043.74 190.17 2040.57 202.73 2031.58 211.72Z" fill="#036544"/><path d="M2110.43 56.75C2117.53 49.65 2129.03 49.6 2136.13 56.7 2143.23 63.8 2143.23 75.35 2136.13 82.45 2129.03 89.55 2117.53 89.5 2110.43 82.4 2103.33 75.3 2103.33 63.85 2110.43 56.75Z" fill="#A3C53A"/><path d="M2135.67 6.79 2186.09 57.21C2177.1 66.2 2164.53 69.37 2152.99 66.71 2152.33 60.02 2149.46 53.58 2144.36 48.47 2139.25 43.36 2132.81 40.5 2126.12 39.84 2123.51 28.35 2126.68 15.78 2135.67 6.79Z" fill="#036544"/><path d="M2031.12 82.45C2024.02 75.35 2023.97 63.85 2031.07 56.75 2038.17 49.65 2049.72 49.65 2056.82 56.75 2063.92 63.85 2063.87 75.35 2056.77 82.45 2049.66 89.55 2038.22 89.55 2031.12 82.45Z" fill="#A3C53A"/><path d="M1981.16 57.21 2031.58 6.79C2040.57 15.78 2043.74 28.35 2041.08 39.89 2034.39 40.55 2027.95 43.42 2022.84 48.52 2017.73 53.62 2014.87 60.07 2014.21 66.76 2002.71 69.37 1990.15 66.2 1981.16 57.21Z" fill="#036544"/><path d="M2136.13 136.06C2143.23 143.16 2143.28 154.66 2136.18 161.76 2129.08 168.86 2117.53 168.86 2110.43 161.76 2103.33 154.66 2103.38 143.16 2110.48 136.06 2117.58 128.96 2129.03 128.96 2136.13 136.06Z" fill="#A3C53A"/><path d="M2186.09 161.3 2135.67 211.72C2126.68 202.73 2123.51 190.16 2126.17 178.62 2132.86 177.96 2139.3 175.09 2144.41 169.99 2149.52 164.89 2152.38 158.44 2153.04 151.75 2164.53 149.14 2177.1 152.31 2186.09 161.3Z" fill="#036544"/></g></svg>