<svg width="66.67" height="47.77" viewBox="0 0 66.67 47.77" xmlns="http://www.w3.org/2000/svg" xmlns:xlink="http://www.w3.org/1999/xlink" overflow="visible"><defs></defs><g id="Chat_1_"><g id="XMLID_4_"><circle cx="24.71" cy="18.81" r="2.85" id="XMLID_7_" fill="#A3C53A"/><circle cx="33.33" cy="18.81" r="2.85" id="XMLID_6_" fill="#A3C53A"/><circle cx="41.95" cy="18.81" r="2.85" id="XMLID_5_" fill="#A3C53A"/></g><path d="M47.95 0 18.71 0C8.38 0 0 8.38 0 18.71L0 18.71C0 29.04 8.38 37.42 18.71 37.42L35.6 37.42C39.23 41.05 39.16 47.76 39.16 47.76 39.16 47.76 48.79 44.76 47.95 37.42 58.28 37.42 66.66 29.04 66.66 18.71L66.66 18.71C66.67 8.38 58.29 0 47.95 0ZM41.95 25.66 24.71 25.66C20.93 25.66 17.86 22.58 17.86 18.8 17.86 15.02 20.94 11.95 24.71 11.95L41.95 11.95C45.73 11.95 48.81 15.03 48.81 18.8 48.81 22.59 45.73 25.66 41.95 25.66Z" id="XMLID_1_" fill="#006443"/></g></svg>