<svg width="64.39" height="55.5" viewBox="0 0 64.39 55.5" xmlns="http://www.w3.org/2000/svg" xmlns:xlink="http://www.w3.org/1999/xlink" overflow="visible"><defs></defs><g id="Thumbs_up_1_"><path d="M14.16 52.21 5.79 52.21C2.59 52.21 0 49.62 0 46.42L0 29.57C0 26.37 2.59 23.78 5.79 23.78L14.16 23.78 14.16 52.21Z" id="XMLID_2_" fill="#A3C53A"/><path d="M64.39 24.87C64.39 22.45 62.43 20.49 60.01 20.49L53.3 20.49 49.66 20.49 42.12 20.49C42.23 19.71 42.61 18.67 43.72 17.63 45.91 15.56 51.56 13.81 51.08 5.22 50.8 0.15 48.61-0.32 46.87 0.14 45.62 0.47 44.71 1.5 44.3 2.73 42.99 6.66 39.29 9.19 36.22 10.67 32.89 12.28 29.97 14.62 27.73 17.58L25.53 20.5 17.97 28.77 17.97 50.09 25.87 53.37C29.27 54.78 32.91 55.5 36.59 55.5L43.49 55.5 53.29 55.5 53.84 55.5C56.26 55.5 58.22 53.54 58.22 51.12 58.22 48.7 56.26 46.74 53.84 46.74L56.6 46.74C59.02 46.74 60.98 44.78 60.98 42.36 60.98 39.94 59.02 37.98 56.6 37.98L58.16 37.98C60.58 37.98 62.54 36.02 62.54 33.6 62.54 31.18 60.58 29.22 58.16 29.22L60 29.22C62.43 29.24 64.39 27.28 64.39 24.87Z" id="XMLID_1_" fill="#006443"/></g></svg>