<svg width="58.07" height="64.05" viewBox="0 0 58.07 64.05" xmlns="http://www.w3.org/2000/svg" xmlns:xlink="http://www.w3.org/1999/xlink" overflow="visible"><defs></defs><g id="Profile_1_"><circle cx="29.02" cy="15.27" r="15.27" id="XMLID_2_" fill="#A3C53A"/><path d="M43.2 34.71 14.88 34.71C6.94 34.71 0.47 40.91 0 48.73 2.79 52.8 6.41 56.25 10.62 58.84L10.62 50.65C10.62 50.14 11.03 49.73 11.54 49.73L11.54 49.73C12.05 49.73 12.46 50.14 12.46 50.65L12.46 59.9C17.4 62.55 23.05 64.05 29.04 64.05 35.04 64.05 40.68 62.55 45.62 59.9L45.62 50.65C45.62 50.14 46.03 49.73 46.54 49.73L46.54 49.73C47.05 49.73 47.46 50.14 47.46 50.65L47.46 58.84C51.67 56.25 55.29 52.8 58.08 48.73 57.6 40.91 51.13 34.71 43.2 34.71Z" id="XMLID_1_" fill="#006443"/></g></svg>