<svg width="53.09" height="55.44" viewBox="0 0 53.09 55.44" xmlns="http://www.w3.org/2000/svg" xmlns:xlink="http://www.w3.org/1999/xlink" overflow="visible"><defs></defs><g id="Search_1_"><path d="M30.31 0C17.72 0 7.52 10.2 7.52 22.79 7.52 28.49 9.63 33.69 13.09 37.68L0.97 49.8C-0.32 51.09-0.32 53.18 0.97 54.47L0.97 54.47C2.26 55.76 4.35 55.76 5.64 54.47L18.1 42.01C21.63 44.26 25.81 45.58 30.3 45.58 42.89 45.58 53.09 35.38 53.09 22.79 53.09 10.2 42.89 0 30.31 0ZM30.31 41.25C20.13 41.25 11.85 32.97 11.85 22.79 11.85 12.61 20.13 4.33 30.31 4.33 40.49 4.33 48.77 12.61 48.77 22.79 48.77 32.97 40.49 41.25 30.31 41.25Z" id="XMLID_5_" fill="#006443"/><g id="XMLID_1_"><path d="M22.23 11.2C21.09 12 20.08 12.96 19.22 14.04L39.05 33.87C40.14 33.01 41.1 32 41.89 30.86L22.23 11.2Z" id="XMLID_4_" fill="#006443"/><path d="M43.87 26.73C44.23 25.48 44.44 24.16 44.44 22.79 44.44 15 38.1 8.65 30.3 8.65 28.93 8.65 27.61 8.86 26.36 9.22L43.87 26.73Z" id="XMLID_3_" fill="#006443"/><path d="M17.03 17.98C16.48 19.48 16.17 21.1 16.17 22.79 16.17 30.58 22.51 36.93 30.31 36.93 32 36.93 33.62 36.62 35.12 36.07L17.03 17.98Z" id="XMLID_2_" fill="#006443"/></g></g></svg>